<svg width="16" height="16" xmlns="http://www.w3.org/2000/svg">

 <g>
  <title>background</title>
  <rect fill="none" id="canvas_background" height="18" width="18" y="-1" x="-1"/>
 </g>
 <g>
  <title>Layer 1</title>
  <rect x="1" y="1" id="svg_1" width="32" height="32" fill="none"/>
  <path stroke="null" fill="#454d4f" id="svg_2" d="m15.991837,8l-2.996939,-2.788432l0,1.858954l-0.99898,0l0,-2.788432l-2.996939,0l0,-0.929477l1.997959,0l-2.996939,-2.788432l-2.996939,2.788432l1.997959,0l0,0.929477l-2.996939,0l0,2.788432l-0.99898,0l0,-1.858954l-2.996939,2.788432l2.996939,2.788432l0,-1.858954l0.99898,0l0,2.788432l2.996939,0l0,0.929477l-1.997959,0l2.996939,2.788432l2.996939,-2.788432l-1.997959,0l0,-0.929477l2.996939,0l0,-2.788432l0.99898,0l0,1.858954l2.996939,-2.788432zm-4.994898,2.788432l-5.993877,0l0,-5.576863l5.993877,0l0,5.576863z"/>
 </g>
</svg>